<?xml version="1.0"?>
<svg xmlns="http://www.w3.org/2000/svg" height="512px" viewBox="0 -19 480 479" width="512px" class=""><g transform="matrix(-1 0 0 1 480 0)"><path d="m48 360.5h-16v48h32v-16h-16zm0 0" data-original="#000000" class="active-path" data-old_color="#fafafa" fill="#fafafa"/><path d="m80 392.5h16v16h-16zm0 0" data-original="#000000" class="active-path" data-old_color="#fafafa" fill="#fafafa"/><path d="m304 168.5h16v16h-16zm0 0" data-original="#000000" class="active-path" data-old_color="#fafafa" fill="#fafafa"/><path d="m480 8.5c0-4.417969-3.582031-8-8-8h-16c-15.523438.007812-30.339844 6.480469-40.894531 17.863281-2.777344-10.492187-12.25-17.820312-23.105469-17.863281h-32c-10.855469.042969-20.328125 7.371094-23.105469 17.863281-10.554687-11.382812-25.371093-17.855469-40.894531-17.863281h-16c-4.417969 0-8 3.582031-8 8-.003906 15.066406 6.085938 29.492188 16.878906 40h-8.878906c-4.417969 0-8 3.582031-8 8v48h-44.359375c-13.511719.097656-26.390625 5.726562-35.640625 15.574219v-7.574219c0-4.417969-3.582031-8-8-8h-64c-4.417969 0-8 3.582031-8 8v7.574219c-9.25-9.847657-22.128906-15.476563-35.640625-15.574219h-52.359375c-4.417969 0-8 3.582031-8 8-.097656 14.828125 5.472656 29.136719 15.566406 40h-23.566406c-4.417969 0-8 3.582031-8 8v272c0 4.417969 3.582031 8 8 8h464c4.417969 0 8-3.582031 8-8v-376c0-4.417969-3.582031-8-8-8h-8.878906c10.792968-10.507812 16.882812-24.933594 16.878906-40zm-16 128h-56v-16h56zm-112-112c0-4.417969 3.582031-8 8-8h32c4.417969 0 8 3.582031 8 8v24h-48zm-80 144v56h-80v-56zm-80 72h80v32h-80zm0 48h80v136h-80zm96-168h56v16h-56zm.800781-104h7.199219c19 .019531 35.375 13.386719 39.199219 32h-7.199219c-19-.019531-35.375-13.386719-39.199219-32zm55.199219 48v40h-56v-40zm-116.359375 56h43.648437c-2.398437 17.695312-17.089843 31.15625-34.929687 32h-43.648437c2.398437-17.695312 17.089843-31.15625 34.929687-32zm-99.640625 0h48v32h-48zm-112 120h96v32h-96zm16.710938-120h43.648437c17.839844.84375 32.53125 14.304688 34.929687 32h-43.648437c-17.839844-.84375-32.53125-14.304688-34.929687-32zm79.289062 48v56h-96v-56zm-96 120h96v136h-96zm112 136v-256h48v256zm160-272h56v240h-40v16h40v16h-56zm72 272v-360h32v360zm48 0v-16h40v-72h-16v56h-24v-240h56v272zm56-360v40h-56v-40zm-40-16h-7.199219c3.824219-18.613281 20.199219-31.980469 39.199219-32h7.199219c-3.824219 18.613281-20.199219 31.980469-39.199219 32zm0 0" data-original="#000000" class="active-path" data-old_color="#fafafa" fill="#fafafa"/></g> </svg>
